<?xml version="1.0" encoding="utf-8"?>
<!-- Generator: Adobe Illustrator 19.2.0, SVG Export Plug-In . SVG Version: 6.00 Build 0)  -->
<!DOCTYPE svg PUBLIC "-//W3C//DTD SVG 1.1//EN" "http://www.w3.org/Graphics/SVG/1.1/DTD/svg11.dtd">
<svg version="1.1" id="Layer_1" xmlns="http://www.w3.org/2000/svg" xmlns:xlink="http://www.w3.org/1999/xlink" x="0px" y="0px"
	 viewBox="0 0 64 64" style="enable-background:new 0 0 64 64;" xml:space="preserve">
<style type="text/css">
	.st0{fill:#FFDD67;}
	.st1{opacity:0.8;enable-background:new    ;}
	.st2{fill:#FF717F;}
	.st3{fill:#664E27;}
	.st4{fill:#FFDD77;}
	.st5{fill:#FFCF01;}
</style>
<ellipse transform="matrix(0.1529 -0.9882 0.9882 0.1529 -1.5524 56.1889)" class="st0" cx="32" cy="29" rx="27" ry="27"/>
<g class="st1">
	<path class="st2" d="M48.9,19.5c4-0.1,7.3,3.1,7.3,7c0.1,4-3.1,7.3-7,7.3c-4,0.1-7.3-3.1-7.4-7C41.8,22.9,44.9,19.6,48.9,19.5"/>
</g>
<g class="st1">
	<ellipse transform="matrix(0.1529 -0.9882 0.9882 0.1529 -13.5572 37.6758)" class="st2" cx="15.2" cy="26.7" rx="7.2" ry="7.2"/>
</g>
<path class="st3" d="M19,35c2.3,1.3,4.4,2,6.6,2.5c2.2,0.5,4.4,0.7,6.6,0.6c2.2-0.1,4.4-0.3,6.6-0.9c2.2-0.6,4.3-1.4,6.5-2.8
	c-0.9,2.5-3,4.4-5.3,5.7c-2.4,1.3-5.1,1.9-7.7,2c-2.7,0.1-5.4-0.5-7.8-1.7C22.2,39.3,20,37.5,19,35"/>
<path class="st4" d="M27.3,47.5l-1.4,0c2.5,0,2.5-4.3,0-4.3H14.9c0,0,5.4-0.3,4.6-2.9c-0.5-1.8-3.6-1.5-5.9-1
	c-2.8,0.6-3.6,1-5.2,1.7c-8.3,4-5.8,14.5-1.5,17.7C9.8,61,12.1,61,15.1,61c2.5,0,8.5,0,8.5,0c2.9,0,3.4-4,0.5-4l2.3,0
	c2.5,0,2.5-4.4,0-4.4h1C31,52.6,31,47.5,27.3,47.5"/>
<g>
	<path class="st5" d="M23.6,62C23.6,62,23.6,62,23.6,62h-8.5c-3,0-5.5,0-8.8-2.5c-2.8-2.2-4.7-6.9-4.3-11c0.4-3.8,2.5-6.7,6-8.4
		c1.7-0.8,2.6-1.2,5.4-1.8c1.2-0.3,2.3-0.4,3.2-0.4c2.7,0,3.5,1.2,3.8,2.1c0.2,0.8,0.1,1.5-0.3,2.1c0,0,0,0,0,0H26
		c1.8,0,2.8,1.6,2.8,3.1c0,0.5-0.1,0.9-0.3,1.3c1.6,0.5,2.5,1.9,2.5,3.3c0,1.3-0.7,2.7-2.1,3.2c0.2,0.5,0.3,1,0.3,1.5
		c0,1.4-0.8,2.9-2.3,3.1c0.1,0.3,0.1,0.6,0.1,0.8C27,60.4,25.7,62,23.6,62 M16.7,40c-0.8,0-1.8,0.1-2.9,0.4c-2.8,0.6-3.5,0.9-5,1.6
		c-3.6,1.7-4.7,4.7-4.9,6.8c-0.4,3.8,1.5,7.6,3.5,9.2c2.7,2.1,4.8,2.1,7.6,2.1h8.5c1.1,0,1.5-0.8,1.5-1.3c0-0.5-0.4-0.8-1-0.8h0
		c-0.5,0-1-0.4-1-1c0-0.5,0.4-1,1-1h0l2.3,0c0.9,0,0.9-1.1,0.9-1.2s0-1.2-0.9-1.2c-0.5,0-1-0.4-1-1c0-0.5,0.4-1,1-1h1
		c1.3,0,1.8-0.8,1.8-1.5c0-0.7-0.5-1.6-1.8-1.6l-1.4,0l0-2c0.9,0,0.9-1,0.9-1.2c0-0.1,0-1.2-0.9-1.2H14.9c-0.5,0-0.9-0.4-1-1
		c0-0.5,0.4-1,0.9-1c1.2-0.1,3.2-0.5,3.7-1.2c0.1-0.1,0.1-0.2,0.1-0.5C18.5,40.1,17.3,40,16.7,40"/>
	<path class="st5" d="M26,48.5h-8.7c-0.5,0-1-0.4-1-1c0-0.5,0.4-1,1-1H26c0.5,0,1,0.4,1,1C26.9,48.1,26.5,48.5,26,48.5"/>
	<path class="st5" d="M26.3,53.6h-9c-0.5,0-1-0.4-1-1c0-0.5,0.4-1,1-1h9c0.5,0,1,0.4,1,1C27.3,53.1,26.8,53.6,26.3,53.6"/>
	<path class="st5" d="M24.1,58h-6.8c-0.5,0-1-0.4-1-1s0.4-1,1-1h6.8c0.5,0,1,0.4,1,1S24.6,58,24.1,58"/>
</g>
<path class="st4" d="M36.7,52.6h1c-2.5,0-2.5,4.4,0,4.4l2.3,0c-2.9,0-2.5,4,0.5,4c0,0,6,0,8.5,0c3,0,5.3,0,8.2-2.3
	c4.2-3.2,6.8-13.7-1.5-17.7c-1.6-0.7-2.4-1.1-5.2-1.7c-2.4-0.5-5.4-0.8-5.9,1c-0.7,2.6,4.7,2.9,4.7,2.9H38c-2.5,0-2.5,4.3,0,4.3
	l-1.4,0C33,47.5,33,52.6,36.7,52.6"/>
<g>
	<path class="st5" d="M40.4,62c-2.1,0-3.4-1.6-3.4-3.2c0-0.3,0-0.6,0.1-0.8c-1.5-0.3-2.3-1.7-2.3-3.1c0-0.5,0.1-1,0.3-1.5
		c-1.4-0.6-2.1-1.9-2.1-3.2c0-1.4,0.8-2.9,2.5-3.3c-0.2-0.4-0.2-0.9-0.3-1.3c0-1.5,1-3.1,2.8-3.1h5.9c0,0,0,0,0,0
		c-0.4-0.6-0.6-1.4-0.3-2.1c0.3-1,1.1-2.1,3.8-2.1c0.9,0,2,0.1,3.2,0.4c2.8,0.6,3.7,1,5.4,1.8c3.5,1.7,5.6,4.6,6,8.4
		c0.4,4.1-1.4,8.8-4.3,11C54.4,62,51.9,62,48.9,62L40.4,62 M39.9,58c-0.7,0-1,0.3-1,0.8c0,0.5,0.4,1.3,1.5,1.3v1l0-1h8.5
		c2.8,0,4.9,0,7.6-2.1c2-1.5,3.9-5.4,3.5-9.2c-0.2-2.1-1.2-5.1-4.9-6.8c-1.5-0.7-2.2-1.1-5-1.6c-1.1-0.2-2.1-0.4-2.9-0.4
		c-0.7,0-1.8,0.1-2,0.7c-0.1,0.2,0,0.3,0.1,0.5c0.5,0.7,2.5,1.1,3.7,1.2c0.5,0,0.9,0.5,0.9,1c0,0.5-0.4,1-1,1H38
		c-0.9,0-0.9,1-0.9,1.2c0,0.2,0,1.2,0.9,1.2c0,0,0,0,0,0c0,0,0,0,0,0c0.5,0,1,0.4,1,1c0,0.5-0.4,1-0.9,1h0c0,0,0,0,0,0s0,0,0,0
		s0,0,0,0h0c0,0,0,0,0,0s0,0,0,0s0,0,0,0s0,0,0,0h0c0,0,0,0,0,0h0c0,0,0,0,0,0h0c0,0,0,0,0,0c0,0,0,0,0,0c0,0,0,0,0,0h0c0,0,0,0,0,0
		h0c0,0,0,0,0,0l-1.4,0c-1.3,0-1.8,0.8-1.8,1.6c0,0.7,0.5,1.5,1.8,1.5h1h0c0.5,0,1,0.4,1,1c0,0.5-0.4,1-1,1c-0.9,0-0.9,1.1-0.9,1.2
		c0,0.1,0,1.2,0.9,1.2l2.3,0h0c0.5,0,1,0.4,1,1C40.9,57.5,40.5,58,39.9,58L39.9,58L39.9,58z"/>
	<path class="st5" d="M46.7,48.5H38c-0.5,0-1-0.4-1-1c0-0.5,0.4-1,1-1h8.7c0.5,0,1,0.4,1,1C47.7,48.1,47.2,48.5,46.7,48.5"/>
	<path class="st5" d="M46.7,53.6h-9c-0.5,0-1-0.4-1-1c0-0.5,0.4-1,1-1h9c0.5,0,1,0.4,1,1C47.7,53.1,47.2,53.6,46.7,53.6"/>
	<path class="st5" d="M46.7,58h-6.8c-0.5,0-1-0.4-1-1s0.4-1,1-1h6.8c0.5,0,1,0.4,1,1S47.2,58,46.7,58"/>
</g>
<path class="st3" d="M35.5,14.1c-0.2,0.3,0.3,0.8,0.8,1.2c2.4-1.3,3-1.4,4.9-1.5c2.4-0.1,5.4,0.2,7.3,1.8c0.6-0.4,1-0.8,0.9-1.2
	C46.7,8.9,38.5,8.7,35.5,14.1"/>
<path class="st3" d="M27.9,14.1c-3-5.4-11.2-5.2-13.9,0.3c-0.2,0.3,0.3,0.8,0.9,1.2c2-1.6,4.9-1.9,7.3-1.8c1.9,0.1,2.5,0.2,4.9,1.5
	C27.6,14.9,28,14.4,27.9,14.1"/>
</svg>
